<svg width="190" height="275" viewBox="0 0 190 275" fill="none" xmlns="http://www.w3.org/2000/svg">
<path d="M47.0127 66.2395L53.7231 126.388C54.5777 136.075 61.4143 141.774 67.1116 142.344C77.8825 143.421 81.4051 133.248 82.3102 127.815C83.2152 122.382 85.9304 54.1091 64.2089 20.605C58.7785 11.5499 42.1254 1.94783 26.1963 16.4361C21.9726 20.6618 13.1634 32.3732 11.7153 45.4126C9.00008 62.2588 9 75.8415 9 86.7077C9.90506 106.629 9 126.55 13.5254 156.791C17.1456 176.713 21.6709 208.952 28.9114 227.063C33.135 240.344 42.4873 266 60.5886 266C75.0696 266 85.3874 258.209 104.937 221.988L127.563 172.732C134.2 155.829 149.285 119.306 152 102.46" stroke="white" stroke-width="18" stroke-linecap="round"/>
<path d="M151 23.8652C157.255 22.3704 174.589 20.9953 179.593 31.0398C181.684 35.239 184.662 41.7492 184.954 48.0797C185.15 52.3399 184.954 57.048 179.593 58.8417C173.934 60.0375 162.258 54.8956 164.403 28.3493C165.296 21.1747 167.977 15.7937 176.018 14" stroke="white" stroke-width="9" stroke-linecap="round"/>
</svg>
