<svg xmlns="http://www.w3.org/2000/svg" fill="none" viewBox="0 0 199.33 289">
<path d="M47.6751 68.2485L54.8555 132.61C55.7699 142.976 63.0854 149.073 69.1816 149.683C80.707 150.836 84.4763 139.95 85.4447 134.136C86.4132 128.323 89.3185 55.2685 66.0757 19.4178C60.265 9.72844 42.4454 -0.546092 25.4007 14.9569C20.8812 19.4786 11.455 32.0102 9.90544 45.9629C7.00009 63.989 7 78.523 7 90.1503C7.96845 111.467 7 132.784 11.8423 165.142C15.7162 186.459 20.5583 220.957 28.306 240.336C32.8254 254.547 42.8327 282 62.2018 282C77.697 282 88.7375 273.663 109.656 234.906L133.867 182.199C140.969 164.113 157.11 125.032 160.016 107.006" stroke="#373737" stroke-width="14" stroke-linecap="round"/>
<path d="M158.946 22.9065C165.638 21.307 184.187 19.8356 189.541 30.5836C191.779 35.0769 194.965 42.0431 195.277 48.8169C195.488 53.3755 195.277 58.4134 189.541 60.3327C183.486 61.6122 170.993 56.1102 173.287 27.7047C174.243 20.0275 177.112 14.2696 185.717 12.3503" stroke="#373737" stroke-width="8" stroke-linecap="round"/>
</svg>