<svg xmlns="http://www.w3.org/2000/svg" fill="none" viewBox="15 15 159 89.55">
<g filter="url(#filter0_d_88_205)">
<path d="M15 20C15 17.2386 17.2386 15 20 15L169 15C171.761 15 174 17.2386 174 20V99.5517C174 102.313 171.761 104.552 169 104.552H20C17.2386 104.552 15 102.313 15 99.5517L15 20Z" fill="#FAD99B"/>
<path d="M19.7505 24.0204C19.7505 21.259 21.9891 19.0204 24.7505 19.0204L164.247 19.0204C167.008 19.0204 169.247 21.259 169.247 24.0204V95.8963C169.247 98.6577 167.008 100.896 164.247 100.896L24.7505 100.896C21.9891 100.896 19.7505 98.6577 19.7505 95.8962L19.7505 24.0204Z" fill="#FBE7BF"/>
<path d="M39.1245 45.8757C39.1245 44.7712 40.0199 43.8757 41.1245 43.8757L148.242 43.8757C149.346 43.8757 150.242 44.7712 150.242 45.8757V59.593L39.1245 59.593V45.8757Z" fill="#DB8370"/>
<path d="M39.1235 59.5928L150.241 59.5928V74.041C150.241 75.1456 149.345 76.041 148.241 76.041L41.1235 76.041C40.019 76.041 39.1235 75.1456 39.1235 74.041V59.5928Z" fill="#D56047"/>
</g>
<circle cx="65.176" cy="60.6802" r="7.27659" fill="#858585" fill-opacity="0.73" stroke="#343434" stroke-width="3"/>
<rect x="63.9209" y="52.7394" width="2.5076" height="3.34346" fill="#343434"/>
<rect x="63.9209" y="65.2773" width="2.5076" height="3.34346" fill="#343434"/>
<rect x="71.4263" y="55.6244" width="2.5076" height="3.34346" transform="rotate(60 71.4263 55.6244)" fill="#343434"/>
<rect x="60.5679" y="61.8932" width="2.5076" height="3.34346" transform="rotate(60 60.5679 61.8932)" fill="#343434"/>
<rect x="72.6802" y="63.5651" width="2.5076" height="3.34346" transform="rotate(120 72.6802 63.5651)" fill="#343434"/>
<rect x="61.8218" y="57.2963" width="2.5076" height="3.34346" transform="rotate(120 61.8218 57.2963)" fill="#343434"/>
<circle cx="124.023" cy="59.5836" r="7.27659" fill="#858585" fill-opacity="0.73" stroke="#343434" stroke-width="3"/>
<rect x="122.77" y="51.6428" width="2.5076" height="3.34346" fill="#343434"/>
<rect x="122.77" y="64.1808" width="2.5076" height="3.34346" fill="#343434"/>
<rect x="130.273" y="54.5276" width="2.5076" height="3.34346" transform="rotate(60 130.273 54.5276)" fill="#343434"/>
<rect x="119.415" y="60.7964" width="2.5076" height="3.34346" transform="rotate(60 119.415 60.7964)" fill="#343434"/>
<rect x="131.528" y="62.4683" width="2.5076" height="3.34346" transform="rotate(120 131.528 62.4683)" fill="#343434"/>
<rect x="120.669" y="56.1992" width="2.5076" height="3.34346" transform="rotate(120 120.669 56.1992)" fill="#343434"/>
<defs>
<filter id="filter0_d_88_205" x="0.9" y="0.9" width="187.2" height="117.752" filterUnits="userSpaceOnUse" color-interpolation-filters="sRGB">
<feFlood flood-opacity="0" result="BackgroundImageFix"/>
<feColorMatrix in="SourceAlpha" type="matrix" values="0 0 0 0 0 0 0 0 0 0 0 0 0 0 0 0 0 0 127 0" result="hardAlpha"/>
<feOffset/>
<feGaussianBlur stdDeviation="7.05"/>
<feComposite in2="hardAlpha" operator="out"/>
<feColorMatrix type="matrix" values="0 0 0 0 0 0 0 0 0 0 0 0 0 0 0 0 0 0 0.56 0"/>
<feBlend mode="normal" in2="BackgroundImageFix" result="effect1_dropShadow_88_205"/>
<feBlend mode="normal" in="SourceGraphic" in2="effect1_dropShadow_88_205" result="shape"/>
</filter>
</defs>
</svg>